HIERARCHY
ROOT Hips
{
	OFFSET 0.00000 0.00000 0.00000
	CHANNELS 6 Xposition Yposition Zposition Yrotation Zrotation Xrotation 
	JOINT Lumbar
	{
		OFFSET 0 0 0
		CHANNELS 3 Zrotation Xrotation Yrotation
		JOINT Neck
		{
			OFFSET 0.00 0.2701 0.00
			CHANNELS 3 Zrotation Xrotation Yrotation
			End Site
			{
				OFFSET 0.00 0.1379 0.00
			}
		}
		JOINT RightShoulder
		{
			OFFSET 0.0119 0.2289 0.1181
			CHANNELS 3 Zrotation Xrotation Yrotation
			JOINT RightElbow
			{
				OFFSET 0.00 -0.1475 0.00
				CHANNELS 2 Zrotation Yrotation
				JOINT RightWrist
				{
					OFFSET 0.00 -0.1605 0.00
					CHANNELS 2 Zrotation Xrotation
					End Site
					{
						OFFSET 0.0040 -0.1068 0.0006
					}
				}
			}
		}
		JOINT LeftShoulder
		{
			OFFSET 0.0119 0.2289 -0.1181
			CHANNELS 3 Zrotation Xrotation Yrotation
			JOINT LeftElbow
			{
				OFFSET 0.00 -0.1475 0.00
				CHANNELS 2 Zrotation Yrotation
				JOINT LeftWrist
				{
					OFFSET 0.00 -0.1605 0.00
					CHANNELS 2 Zrotation Xrotation
					End Site
					{
						OFFSET 0.0040 -0.1068 -0.0006
					}
				}
			}
		}
	}
	JOINT RightHip
	{
		OFFSET 0.0316 -0.0424 0.0458
		CHANNELS 3 Zrotation Xrotation Yrotation
		JOINT RightKnee
		{
			OFFSET 0.00 -0.2438 0.00
			CHANNELS 1 Zrotation
			JOINT RightAnkle
			{
				OFFSET 0.00 -0.2449 0.00
				CHANNELS 3 Zrotation Xrotation Yrotation
				End Site
				{
					OFFSET 0.1237 -0.0542 0.0051
				}
			}
		}
	}
	JOINT LeftHip
	{
		OFFSET 0.0316 -0.0424 -0.0458
		CHANNELS 3 Zrotation Xrotation Yrotation
		JOINT LeftKnee
		{
			OFFSET 0.00 -0.2438 0.00
			CHANNELS 1 Zrotation
			JOINT LeftAnkle
			{
				OFFSET 0.00 -0.2449 0.00
				CHANNELS 3 Zrotation Xrotation Yrotation
				End Site
				{
					OFFSET 0.1237 -0.0542 -0.0051
				}
			}
		}
	}
}
MOTION
Frames: 17
Frame Time: 0.02
0 0.57926 0 176.29649 0 -4.61574 6.67158 3.78552 0.84469 -24.35475 1.75605 1.45962 6.08442 -67.08526 -86.61969 21.71616 74.83544 -30.38069 -2.83426 24.36262 66.97116 60.7078 19.01291 -74.97109 -29.11118 2.96078 -0.43942 6.05115 -1.93281 -10.00103 1.27376 -5.15647 -11.40094 -2.93238 5.56494 4.02983 -6.82461 7.08143 7.1616 10.94253
-0.0003 0.57923 -0.00023 176.29791 0 -4.62515 6.79443 3.68216 0.75653 -24.57773 2.03956 1.55992 6.74931 -67.4178 -86.15339 21.74281 74.81079 -30.48021 -2.83204 24.54585 66.7573 60.91086 19.04931 -75.13651 -29.02028 3.00331 -0.47509 6.08071 -1.94085 -9.99429 1.29307 -5.1654 -11.40027 -2.94738 5.59233 4.05146 -6.85401 7.10685 7.16422 10.95006
-0.00061 0.5792 -0.00046 176.29945 0 -4.63453 6.91682 3.5795 0.66819 -24.80023 2.32176 1.66016 7.41302 -67.74885 -85.68754 21.76977 74.78699 -30.57846 -2.82992 24.72887 66.54377 61.11364 19.08488 -75.30136 -28.92891 3.04573 -0.51077 6.11005 -1.94905 -9.98741 1.31231 -5.17426 -11.39944 -2.96243 5.61951 4.07286 -6.88315 7.1322 7.1669 10.9575
-0.00091 0.57917 -0.00068 176.30128 0 -4.64387 7.03837 3.47843 0.57773 -25.02219 2.60158 1.76207 8.07567 -68.07792 -85.22128 21.79796 74.76597 -30.67293 -2.82802 24.91135 66.32915 61.31755 19.11805 -75.4652 -28.83513 3.0889 -0.54682 6.13887 -1.95782 -9.97977 1.33147 -5.18287 -11.39774 -2.9779 5.64627 4.09378 -6.9113 7.15741 7.16976 10.96465
-0.00122 0.57914 -0.00093 176.30136 0 -4.65342 7.16411 3.36868 0.49785 -25.24609 2.89413 1.85625 8.74057 -68.41836 -84.75994 21.8193 74.72977 -30.7878 -2.82481 25.09492 66.1199 61.51582 19.16459 -75.63399 -28.75454 3.12903 -0.58087 6.17053 -1.96336 -9.97599 1.35106 -5.19275 -11.40042 -2.99123 5.6754 4.11751 -6.94441 7.18321 7.17154 10.9733
-0.00152 0.57911 -0.00112 176.30528 0 -4.6625 7.28104 3.27761 0.39613 -25.46629 3.15941 1.96593 9.40232 -68.73383 -84.28682 21.85533 74.72604 -30.85917 -2.82448 25.27721 65.89976 61.72558 19.18237 -75.79243 -28.64585 3.17492 -0.61916 6.1961 -1.97589 -9.96413 1.36973 -5.19994 -11.39399 -3.00901 5.6994 4.13512 -6.96719 7.20785 7.17568 10.97881
-0.0018 0.57907 -0.00117 176.31908 0 -4.67062 7.37472 3.23577 0.22504 -25.67677 3.35424 2.12947 10.05381 -68.99124 -83.78279 21.93238 74.8122 -30.80997 -2.83139 25.45109 65.64037 61.97551 19.12202 -75.92286 -28.4561 3.24414 -0.67017 6.20554 -2.00753 -9.92828 1.3862 -5.19972 -11.36003 -3.04046 5.71005 4.13679 -6.95928 7.22895 7.18614 10.97518
-0.00209 0.57904 -0.00117 176.33695 0 -4.6782 7.45939 3.21321 0.0333 -25.88364 3.5207 2.30686 10.70264 -69.22158 -83.26646 22.02419 74.93112 -30.71684 -2.84142 25.62494 65.37154 62.23532 19.03243 -76.04259 -28.23848 3.31804 -0.7253 6.20872 -2.04629 -9.88459 1.40171 -5.19681 -11.31732 -3.07619 5.71537 4.13202 -6.94128 7.24895 7.19902 10.96847
-0.00237 0.579 -0.00118 176.3534 0 -4.68583 7.54765 3.1833 -0.14323 -26.09214 3.69745 2.47085 11.35514 -69.45773 -82.7535 22.10917 75.03511 -30.64411 -2.85038 25.802 65.11251 62.48602 18.95513 -76.1674 -28.03552 3.38491 -0.77794 6.21437 -2.08201 -9.84548 1.41742 -5.19511 -11.28012 -3.10906 5.72262 4.12965 -6.92934 7.26972 7.21095 10.96346
-0.00266 0.57896 -0.00122 176.36783 0 -4.69432 7.63819 3.14736 -0.34403 -26.30076 3.88582 2.66456 11.99913 -69.72184 -82.24816 22.195 75.13957 -30.56979 -2.85756 25.96488 64.82968 62.75808 18.88159 -76.29252 -27.82386 3.47193 -0.83323 6.22165 -2.117 -9.80189 1.43404 -5.19339 -11.23637 -3.14571 5.73202 4.12983 -6.91135 7.28941 7.2223 10.95717
-0.00294 0.57893 -0.0012 176.38768 0 -4.70085 7.72166 3.12863 -0.49957 -26.50811 4.04239 2.79999 12.65773 -69.92053 -81.7263 22.28212 75.25046 -30.48807 -2.86957 26.15811 64.59493 62.98561 18.79386 -76.41289 -27.62407 3.51876 -0.8839 6.22399 -2.15509 -9.76598 1.44863 -5.19119 -11.20427 -3.17558 5.73561 4.12278 -6.90336 7.311 7.23535 10.95283
-0.00322 0.57891 -0.00107 176.41951 0 -4.70238 7.78918 3.15212 -0.52192 -26.71423 4.12562 2.76841 13.37879 -69.9515 -81.142 22.37314 75.37473 -30.39915 -2.89056 26.42795 64.48841 63.108 18.66918 -76.5373 -27.46098 3.44768 -0.92148 6.2147 -2.20077 -9.75154 1.45709 -5.18721 -11.20566 -3.18502 5.72482 4.10067 -6.9275 7.33876 7.25331 10.95453
-0.00349 0.5789 -0.00089 176.45701 0 -4.70191 7.84957 3.19237 -0.4986 -26.91884 4.17639 2.67822 14.1104 -69.91623 -80.54521 22.46428 75.50398 -30.30395 -2.91679 26.72943 64.4317 63.18119 18.53237 -76.65531 -27.31161 3.33707 -0.95407 6.20054 -2.24917 -9.74548 1.46368 -5.18304 -11.21922 -3.18752 5.70829 4.07086 -6.96186 7.36835 7.27277 10.9584
-0.00377 0.57888 -0.00073 176.49323 0 -4.70218 7.91238 3.22535 -0.49832 -27.1234 4.23711 2.6166 14.82345 -69.90733 -79.9671 22.55274 75.62811 -30.20987 -2.94321 27.02147 64.35686 63.26401 18.40405 -76.76584 -27.15746 3.24839 -0.98858 6.18828 -2.2958 -9.73659 1.47162 -5.17971 -11.22774 -3.19377 5.69416 4.04249 -6.99003 7.39663 7.29097 10.96124
-0.00405 0.57887 -0.00057 176.52418 0 -4.70317 7.97857 3.25755 -0.48922 -27.33142 4.31722 2.54724 15.59556 -69.91388 -79.33355 22.65259 75.76407 -30.12112 -2.95964 27.29366 64.26331 63.4021 18.2612 -76.91693 -26.99498 3.14317 -1.02496 6.17715 -2.34493 -9.72298 1.47738 -5.17316 -11.2339 -3.19806 5.68079 4.02279 -7.0237 7.4268 7.31158 10.96383
-0.00432 0.57885 -0.0004 176.5673 0 -4.70214 8.03587 3.29507 -0.48722 -27.5313 4.34949 2.47999 16.24591 -69.87207 -78.81282 22.72881 75.8779 -30.02092 -2.99715 27.61344 64.21988 63.41179 18.14726 -76.98581 -26.855 3.06292 -1.0559 6.16255 -2.3894 -9.7217 1.4873 -5.17325 -11.24798 -3.20421 5.66448 3.98301 -7.04929 7.45358 7.32765 10.96789
-0.00457 0.57883 -0.00018 176.64339 0 -4.69646 8.07249 3.34335 -0.51705 -27.71395 4.25854 2.43187 16.56865 -69.71808 -78.6021 22.73757 75.91679 -29.88656 -3.10015 28.06633 64.30758 63.09006 18.10775 -76.80227 -26.76395 3.0618 -1.07533 6.13998 -2.42014 -9.7494 1.50862 -5.19241 -11.28108 -3.22125 5.64199 3.89195 -7.0434 7.46998 7.3294 10.9723
